<mxfile host="app.diagrams.net" modified="2022-11-30T16:02:02.348Z" agent="5.0 (Windows NT 10.0; Win64; x64) AppleWebKit/537.36 (KHTML, like Gecko) Chrome/93.0.4577.63 Safari/537.36" etag="7_f4U2LaC-IjTpvxR3ID" version="20.5.3" type="github">
  <diagram id="YMNmySvsfAeIKz8xDAUg" name="第 1 页">
    <mxGraphModel dx="1422" dy="762" grid="1" gridSize="10" guides="1" tooltips="1" connect="1" arrows="1" fold="1" page="1" pageScale="1" pageWidth="827" pageHeight="1169" math="0" shadow="0">
      <root>
        <mxCell id="0" />
        <mxCell id="1" parent="0" />
        <mxCell id="H12W21x1kl2uXQCUJDFM-2" value="" style="rounded=0;whiteSpace=wrap;html=1;" vertex="1" parent="1">
          <mxGeometry x="240" y="190" width="120" height="60" as="geometry" />
        </mxCell>
        <mxCell id="H12W21x1kl2uXQCUJDFM-5" value="类型 FAT32&lt;br&gt;挂载路径 /fat" style="text;html=1;strokeColor=none;fillColor=none;align=center;verticalAlign=middle;whiteSpace=wrap;rounded=0;" vertex="1" parent="1">
          <mxGeometry x="240" y="180" width="120" height="60" as="geometry" />
        </mxCell>
        <mxCell id="H12W21x1kl2uXQCUJDFM-1" value="" style="rounded=0;whiteSpace=wrap;html=1;" vertex="1" parent="1">
          <mxGeometry x="330" y="90" width="120" height="60" as="geometry" />
        </mxCell>
        <mxCell id="H12W21x1kl2uXQCUJDFM-3" value="" style="rounded=0;whiteSpace=wrap;html=1;" vertex="1" parent="1">
          <mxGeometry x="420" y="190" width="120" height="60" as="geometry" />
        </mxCell>
        <mxCell id="H12W21x1kl2uXQCUJDFM-4" value="类型 tmpfs&lt;br&gt;挂载路径 /" style="text;html=1;strokeColor=none;fillColor=none;align=center;verticalAlign=middle;whiteSpace=wrap;rounded=0;" vertex="1" parent="1">
          <mxGeometry x="360" y="96" width="60" height="30" as="geometry" />
        </mxCell>
        <mxCell id="H12W21x1kl2uXQCUJDFM-6" value="类型 EXT4&lt;br&gt;挂载路径 /ext" style="text;html=1;strokeColor=none;fillColor=none;align=center;verticalAlign=middle;whiteSpace=wrap;rounded=0;" vertex="1" parent="1">
          <mxGeometry x="435" y="195" width="90" height="30" as="geometry" />
        </mxCell>
        <mxCell id="H12W21x1kl2uXQCUJDFM-7" value="" style="rounded=0;whiteSpace=wrap;html=1;" vertex="1" parent="1">
          <mxGeometry x="240" y="300" width="120" height="60" as="geometry" />
        </mxCell>
        <mxCell id="H12W21x1kl2uXQCUJDFM-8" value="类型 FAT32&lt;br&gt;挂载路径 /fat/subfat" style="text;html=1;strokeColor=none;fillColor=none;align=center;verticalAlign=middle;whiteSpace=wrap;rounded=0;" vertex="1" parent="1">
          <mxGeometry x="240" y="300" width="120" height="60" as="geometry" />
        </mxCell>
        <mxCell id="H12W21x1kl2uXQCUJDFM-16" style="rounded=0;orthogonalLoop=1;jettySize=auto;html=1;exitX=0.5;exitY=1;exitDx=0;exitDy=0;entryX=0.5;entryY=0;entryDx=0;entryDy=0;startArrow=classic;startFill=1;dashed=1;" edge="1" parent="1" source="H12W21x1kl2uXQCUJDFM-9" target="H12W21x1kl2uXQCUJDFM-3">
          <mxGeometry relative="1" as="geometry" />
        </mxCell>
        <mxCell id="H12W21x1kl2uXQCUJDFM-9" value="MP" style="ellipse;whiteSpace=wrap;html=1;" vertex="1" parent="1">
          <mxGeometry x="400" y="127" width="40" height="20" as="geometry" />
        </mxCell>
        <mxCell id="H12W21x1kl2uXQCUJDFM-15" style="rounded=0;orthogonalLoop=1;jettySize=auto;html=1;exitX=0.5;exitY=1;exitDx=0;exitDy=0;entryX=0.5;entryY=0;entryDx=0;entryDy=0;startArrow=classic;startFill=1;dashed=1;" edge="1" parent="1" source="H12W21x1kl2uXQCUJDFM-10" target="H12W21x1kl2uXQCUJDFM-2">
          <mxGeometry relative="1" as="geometry" />
        </mxCell>
        <mxCell id="H12W21x1kl2uXQCUJDFM-10" value="MP" style="ellipse;whiteSpace=wrap;html=1;" vertex="1" parent="1">
          <mxGeometry x="348" y="127" width="40" height="20" as="geometry" />
        </mxCell>
        <mxCell id="H12W21x1kl2uXQCUJDFM-14" style="rounded=0;orthogonalLoop=1;jettySize=auto;html=1;exitX=0.5;exitY=1;exitDx=0;exitDy=0;entryX=0.5;entryY=0;entryDx=0;entryDy=0;startArrow=classic;startFill=1;dashed=1;" edge="1" parent="1" source="H12W21x1kl2uXQCUJDFM-13" target="H12W21x1kl2uXQCUJDFM-7">
          <mxGeometry relative="1" as="geometry" />
        </mxCell>
        <mxCell id="H12W21x1kl2uXQCUJDFM-13" value="MP" style="ellipse;whiteSpace=wrap;html=1;" vertex="1" parent="1">
          <mxGeometry x="280" y="226" width="40" height="20" as="geometry" />
        </mxCell>
      </root>
    </mxGraphModel>
  </diagram>
</mxfile>
